<svg width="24" height="24" viewBox="0 0 24 24" fill="none" xmlns="http://www.w3.org/2000/svg">
<path d="M7 7.68182C6.44772 7.68182 6 8.10918 6 8.63636C6 9.16354 6.44772 9.59091 7 9.59091H16C16.5523 9.59091 17 9.16354 17 8.63636C17 8.10918 16.5523 7.68182 16 7.68182H7Z" fill="#08033A"/>
<path d="M6 12.4545C6 11.9274 6.44772 11.5 7 11.5H16C16.5523 11.5 17 11.9274 17 12.4545C17 12.9817 16.5523 13.4091 16 13.4091H7C6.44772 13.4091 6 12.9817 6 12.4545Z" fill="#08033A"/>
<path d="M7 15.3182C6.44772 15.3182 6 15.7455 6 16.2727C6 16.7999 6.44772 17.2273 7 17.2273H12C12.5523 17.2273 13 16.7999 13 16.2727C13 15.7455 12.5523 15.3182 12 15.3182H7Z" fill="#08033A"/>
<path fill-rule="evenodd" clip-rule="evenodd" d="M1 11.5V21.0454C1 21.5726 1.4478 22 2.00008 22H12C18.0751 22 23 17.299 23 11.5C23 5.70101 18.0751 1 12 1C5.92487 1 1 5.70101 1 11.5ZM3 11.5C3 6.75537 7.02943 2.90909 12 2.90909C16.9706 2.90909 21 6.75537 21 11.5C21 16.2446 16.9706 20.0909 12 20.0909H3V11.5Z" fill="#08033A"/>
<path d="M7 7.68182C6.44772 7.68182 6 8.10918 6 8.63636C6 9.16354 6.44772 9.59091 7 9.59091H16C16.5523 9.59091 17 9.16354 17 8.63636C17 8.10918 16.5523 7.68182 16 7.68182H7Z" stroke="white" stroke-width="0.7" stroke-linecap="round" stroke-linejoin="round"/>
<path d="M6 12.4545C6 11.9274 6.44772 11.5 7 11.5H16C16.5523 11.5 17 11.9274 17 12.4545C17 12.9817 16.5523 13.4091 16 13.4091H7C6.44772 13.4091 6 12.9817 6 12.4545Z" stroke="white" stroke-width="0.7" stroke-linecap="round" stroke-linejoin="round"/>
<path d="M7 15.3182C6.44772 15.3182 6 15.7455 6 16.2727C6 16.7999 6.44772 17.2273 7 17.2273H12C12.5523 17.2273 13 16.7999 13 16.2727C13 15.7455 12.5523 15.3182 12 15.3182H7Z" stroke="white" stroke-width="0.7" stroke-linecap="round" stroke-linejoin="round"/>
<path fill-rule="evenodd" clip-rule="evenodd" d="M1 11.5V21.0454C1 21.5726 1.4478 22 2.00008 22H12C18.0751 22 23 17.299 23 11.5C23 5.70101 18.0751 1 12 1C5.92487 1 1 5.70101 1 11.5ZM3 11.5C3 6.75537 7.02943 2.90909 12 2.90909C16.9706 2.90909 21 6.75537 21 11.5C21 16.2446 16.9706 20.0909 12 20.0909H3V11.5Z" stroke="white" stroke-width="0.7" stroke-linecap="round" stroke-linejoin="round"/>
</svg>
